<svg width="100" height="100" viewBox="0 0 100 100" fill="none" xmlns="http://www.w3.org/2000/svg">
<g clip-path="url(#clip0_210_137)">
<path d="M51.1896 72.7127C39.7581 72.7127 30.4906 66.8168 26.5333 57.8179C25.7343 56.0028 26.1866 54.0413 27.677 52.8556C29.1755 51.6641 31.2996 51.5717 32.8857 52.6381C33.615 53.1289 34.0932 53.7988 34.4638 54.5783C36.8529 59.6177 40.8221 62.8515 46.4412 64.0257C54.4235 65.6927 62.2484 61.737 65.5203 54.484C66.2735 52.8132 67.5587 51.8508 69.4556 51.8065C72.568 51.7334 74.6882 54.6881 73.5364 57.483C72.5262 59.9372 71.1115 62.1663 69.3082 64.1489C64.1793 69.7888 57.6874 72.5761 51.1896 72.7127Z" fill="black"/>
<path d="M33.874 33.7183C38.0345 33.7741 41.398 37.3756 40.852 41.2196C40.7145 42.1916 40.2562 42.5266 39.2878 42.2686C38.4988 42.0588 37.7237 41.7855 36.9605 41.4967C34.8643 40.7018 32.782 40.7075 30.6878 41.5044C29.9247 41.7951 29.1496 42.0646 28.3585 42.2725C27.42 42.5189 26.9737 42.1936 26.8222 41.2504C26.2942 37.9434 28.9702 34.4613 32.5011 33.8742C32.9534 33.7991 33.4137 33.7683 33.872 33.7183H33.874Z" fill="black"/>
<path d="M98.3621 91.8556L93.2471 72.5605C97.5412 65.4268 99.998 57.1421 100.002 48.3222C100.004 21.8454 77.9779 0.251941 50.4882 0.00170554C22.4983 -0.25238 -0.137491 21.5971 -2.58837e-06 48.5436C0.135493 75.0378 22.2532 96.3694 49.5417 96.6004C58.064 96.6716 66.0802 94.6948 73.1041 91.1549L91.5873 97.7554L97.5591 99.8881C98.928 100.377 100.301 99.1798 99.9402 97.815L98.3601 91.8556H98.3621ZM88.1122 89.6246L80.6241 86.4928L71.8627 82.8298C68.7662 84.6584 65.4047 86.1155 61.8439 87.13C58.0341 88.2156 53.9971 88.7988 49.8187 88.7969C26.8302 88.7911 8.064 70.5528 8.07596 48.2279C8.08791 25.9127 26.9258 7.78596 50.0877 7.80136C73.1579 7.81676 91.9181 25.9974 91.9181 48.3434C91.9181 52.5474 91.2525 56.6012 90.0171 60.4106C88.8256 64.0871 87.102 67.5384 84.936 70.6818L87.9289 79.775L90.4874 87.5496C90.85 88.9143 89.4752 90.1116 88.1062 89.6227L88.1122 89.6246Z" fill="black"/>
<path d="M66.134 44.0663C69.5812 44.0721 72.3947 41.3657 72.3967 38.0452C72.3987 34.7306 69.5672 31.9934 66.142 32.0049C62.7346 32.0145 59.933 34.7132 59.9071 38.0067C59.8812 41.3156 62.7008 44.0605 66.134 44.0663Z" fill="black"/>
</g>
<defs>
<clipPath id="clip0_210_137">
<rect width="100" height="100" fill="white"/>
</clipPath>
</defs>
</svg>
