<svg width="100" height="100" viewBox="0 0 100 100" fill="none" xmlns="http://www.w3.org/2000/svg">
<path d="M98.8269 92.7623L71.0148 64.6967C76.4574 57.8756 79.7386 49.232 79.7386 39.8334C79.7386 17.8339 61.9003 0 39.8693 0C17.8383 0 0 17.8599 0 39.8594C0 61.8589 17.8383 79.6928 39.8693 79.6928C49.4004 79.6928 58.1243 76.3603 64.9992 70.7889L92.6291 98.6722C93.4624 99.5574 94.6082 100 95.728 100C96.7957 100 97.8634 99.6095 98.6707 98.8284C100.389 97.1882 100.441 94.4806 98.8269 92.7623ZM39.8693 71.1273C31.51 71.1273 23.6455 67.8729 17.7342 61.963C11.8228 56.0531 8.5676 48.1906 8.5676 39.8594C8.5676 31.5022 11.8228 23.6397 17.7342 17.7558C23.6455 11.8459 31.51 8.59151 39.8693 8.59151C48.2286 8.59151 56.0931 11.8459 62.0044 17.7558C67.9158 23.6657 71.171 31.5282 71.171 39.8594C71.171 48.2166 67.9158 56.0791 62.0044 61.963C56.0931 67.8729 48.2286 71.1273 39.8693 71.1273Z" fill="black"/>
<path d="M39.1656 60.7669C48.3009 60.7669 55.707 55.8895 58.8694 48.4452C59.5079 46.9436 59.1465 45.321 57.9554 44.3401C56.7579 43.3545 55.0605 43.278 53.793 44.1602C53.2102 44.5662 52.828 45.1204 52.5318 45.7653C50.6226 49.9341 47.4506 52.6092 42.9602 53.5806C36.5812 54.9596 30.328 51.6873 27.7134 45.6873C27.1114 44.3051 26.0844 43.5089 24.5685 43.4723C22.0812 43.4118 20.3869 45.856 21.3073 48.1682C22.1146 50.1984 23.2452 52.0424 24.6863 53.6825C28.785 58.3481 33.9729 60.6538 39.1656 60.7669Z" fill="black"/>
<path d="M27.1459 36.7279C29.9103 36.7391 32.1603 34.5225 32.1778 31.7741C32.1937 29.0305 29.9565 26.7741 27.2049 26.755C24.4724 26.7375 22.1985 29.0002 22.1969 31.7391C22.1969 34.4652 24.4294 36.7168 27.1475 36.7279H27.1459Z" fill="black"/>
<path d="M52.9915 36.7292C55.7463 36.734 57.9947 34.4951 57.9963 31.7483C57.9979 29.0063 55.7351 26.7419 52.9978 26.7515C50.2749 26.7595 48.0361 28.9919 48.0154 31.7165C47.9947 34.4537 50.2479 36.7244 52.9915 36.7292Z" fill="black"/>
</svg>
