<svg width="100" height="80" viewBox="0 0 100 80" fill="none" xmlns="http://www.w3.org/2000/svg">
<path d="M50.0167 20.3755C33.6954 20.3755 20.4588 33.6121 20.4588 49.9334C20.4588 66.2547 33.6954 79.4913 50.0167 79.4913C66.338 79.4913 79.5746 66.2547 79.5746 49.9334C79.5746 33.6121 66.338 20.3755 50.0167 20.3755ZM57.8836 52.7896C54.1134 55.0256 50.3921 57.3106 46.5076 59.3181C45.561 59.8241 43.8146 59.8567 42.9986 59.2855C42.3457 58.8285 42.0519 56.9026 42.4763 56.0539C44.4675 51.9246 44.2063 48.0075 42.3294 43.9271C41.3501 41.8054 42.5416 40.1406 45.0387 40.1243C45.2672 40.2059 45.9037 40.3691 46.4587 40.6792C50.2942 42.9152 54.1134 45.1676 57.9162 47.4689C60.6256 49.101 60.5929 51.1738 57.8836 52.7896Z" fill="black"/>
<path d="M99.9599 47.7463C99.8294 43.7802 99.2255 40.0589 96.7773 37.4638C94.476 35.0156 91.1791 33.7752 87.4741 33.9384C87.0987 33.9547 86.8539 33.9547 86.6254 33.7589C86.0378 23.5091 83.9977 9.66864 81.3373 3.22172C80.5049 0.528704 77.0775 -1.03814 74.7598 0.789843C70.5489 3.22172 65.424 7.08987 61.1968 10.8927C58.2427 10.1583 55.0763 9.7176 51.7141 9.58703C51.5836 9.58703 51.453 9.57071 51.3224 9.57071L50.3595 9.55439V9.53807L49.9841 9.55439L49.6087 9.53807V9.55439L48.6457 9.57071C48.5152 9.57071 48.3846 9.57071 48.254 9.58703C44.8918 9.70128 41.7255 10.142 38.7713 10.8927C34.5441 7.08987 29.4029 3.22172 25.2083 0.789843C22.8907 -1.03814 19.4632 0.528704 18.6308 3.22172C16.0031 9.66864 13.9629 23.4928 13.359 33.7426C13.1306 33.9384 12.8857 33.9384 12.5267 33.9221C8.82173 33.7589 5.52482 35.0156 3.22352 37.4475C0.791643 40.0263 0.171433 43.7639 0.040863 47.7299C-0.0407436 50.2108 -0.0407496 51.0758 0.432568 54.4217C1.19967 59.873 5.11679 64.2471 10.5191 64.7204C11.4658 64.802 12.4124 64.8347 13.3754 64.8347C14.1262 64.8347 14.8933 64.8183 15.6604 64.802C16.4764 64.7857 17.3251 64.7694 18.2065 64.7694C19.3816 64.7694 20.1324 63.5616 19.6428 62.517C18.9083 60.9665 18.3044 59.4323 17.7984 57.9144C17.3578 56.5598 16.9987 55.2051 16.7539 53.8831C16.7212 53.7362 16.7049 53.5893 16.6723 53.4424C15.8236 48.6113 16.1826 43.8944 17.7495 39.1776C19.8876 32.747 23.821 27.3609 29.4192 23.15C35.0011 18.9718 41.9213 16.6542 48.8905 16.6215H49.9841H51.0776C58.0631 16.6378 64.9834 18.9718 70.5489 23.15C76.1471 27.3446 80.0806 32.7307 82.2187 39.1776C83.7692 43.8455 84.1446 48.5134 83.3285 53.2955C83.2632 53.7035 83.1816 54.0952 83.1 54.5033C82.8226 55.8253 82.4472 57.1473 81.9902 58.4857C81.5332 59.824 80.9782 61.1787 80.3254 62.5497C79.8358 63.5942 80.6029 64.802 81.7617 64.802C82.643 64.802 83.4917 64.8183 84.3078 64.8347C85.0912 64.851 85.842 64.8673 86.5928 64.8673C87.5557 64.8673 88.5024 64.851 89.449 64.7531C94.835 64.2797 98.7522 59.9056 99.5356 54.4543C100.042 51.0921 100.042 50.2108 99.9599 47.7463Z" fill="black"/>
</svg>
